<?xml version="1.0" encoding="UTF-8"?>
<!DOCTYPE svg PUBLIC "-//W3C//DTD SVG 1.1//EN" "http://www.w3.org/Graphics/SVG/1.1/DTD/svg11.dtd">
<svg xmlns="http://www.w3.org/2000/svg" version="1.1" width="120px" height="120px" style="shape-rendering:geometricPrecision; text-rendering:geometricPrecision; image-rendering:optimizeQuality; fill-rule:evenodd; clip-rule:evenodd" xmlns:xlink="http://www.w3.org/1999/xlink">
<g><path style="opacity:0.922" fill="#06c69f" d="M 50.5,-0.5 C 56.1667,-0.5 61.8333,-0.5 67.5,-0.5C 98.9159,7.24905 115.916,27.2491 118.5,59.5C 115.941,91.7289 98.941,111.729 67.5,119.5C 61.8333,119.5 56.1667,119.5 50.5,119.5C 50.5,118.833 50.1667,118.5 49.5,118.5C 48.5233,115.713 48.19,112.713 48.5,109.5C 48.8333,109.5 49.1667,109.5 49.5,109.5C 71.9539,111.91 89.6206,103.91 102.5,85.5C 104.539,84.089 105.539,82.089 105.5,79.5C 110.388,66.6228 110.721,53.6228 106.5,40.5C 106.206,37.2459 104.873,34.5792 102.5,32.5C 83.0416,6.80497 59.0416,1.6383 30.5,17C 11.4453,31.8295 4.94534,50.9962 11,74.5C 13.2517,81.3521 16.7517,87.3521 21.5,92.5C 21.3284,93.4916 21.6618,94.1583 22.5,94.5C 22.815,98.3714 22.4816,102.038 21.5,105.5C 10.6374,96.4393 3.30406,85.1059 -0.5,71.5C -0.5,63.5 -0.5,55.5 -0.5,47.5C 7.48072,21.8509 24.4807,5.85093 50.5,-0.5 Z"/></g>
<g><path style="opacity:0.392" fill="#a41c08" d="M 70.5,23.5 C 62.98,22.5273 55.6467,22.194 48.5,22.5C 51.9497,21.9138 55.4497,21.5804 59,21.5C 63.1327,21.2857 66.966,21.9524 70.5,23.5 Z"/></g>
<g><path style="opacity:0.998" fill="#f92300" d="M 48.5,22.5 C 55.6467,22.194 62.98,22.5273 70.5,23.5C 84.8083,28.3897 93.3083,38.3897 96,53.5C 98.5042,72.6592 91.3375,86.8259 74.5,96C 70.6224,97.4698 66.6224,98.3031 62.5,98.5C 60.7354,97.5386 58.7354,97.2053 56.5,97.5C 56.5,88.8333 56.5,80.1667 56.5,71.5C 58.4832,71.8432 59.8166,71.1765 60.5,69.5C 62.7837,69.0248 64.7837,68.0248 66.5,66.5C 69.4156,63.3494 70.0823,59.6827 68.5,55.5C 68.0431,54.7025 67.3764,54.3691 66.5,54.5C 62.1164,49.6867 57.4497,49.3533 52.5,53.5C 50.2239,53.7565 49.0572,55.0898 49,57.5C 48.5001,74.8301 48.3334,92.1635 48.5,109.5C 48.19,112.713 48.5233,115.713 49.5,118.5C 49.5,118.833 49.5,119.167 49.5,119.5C 47.5,119.5 45.5,119.5 43.5,119.5C 43.5,118.833 43.1667,118.5 42.5,118.5C 35.6108,115.386 28.9441,111.719 22.5,107.5C 21.6618,107.158 21.3284,106.492 21.5,105.5C 22.4816,102.038 22.815,98.3714 22.5,94.5C 22.3576,79.4854 22.6909,64.4854 23.5,49.5C 26.6132,35.7184 34.9465,26.7184 48.5,22.5 Z"/></g>
<g><path style="opacity:0.082" fill="#115b4d" d="M 102.5,32.5 C 104.873,34.5792 106.206,37.2459 106.5,40.5C 104.659,38.1515 103.326,35.4848 102.5,32.5 Z"/></g>
<g><path style="opacity:0.235" fill="#c71f04" d="M 23.5,49.5 C 22.6909,64.4854 22.3576,79.4854 22.5,94.5C 21.6618,94.1583 21.3284,93.4916 21.5,92.5C 21.3334,79.4957 21.5001,66.4957 22,53.5C 22.21,51.9419 22.71,50.6085 23.5,49.5 Z"/></g>
<g><path style="opacity:0.298" fill="#901a09" d="M 52.5,53.5 C 51.1995,54.8816 50.3661,56.5483 50,58.5C 49.5001,75.4967 49.3334,92.4967 49.5,109.5C 49.1667,109.5 48.8333,109.5 48.5,109.5C 48.3334,92.1635 48.5001,74.8301 49,57.5C 49.0572,55.0898 50.2239,53.7565 52.5,53.5 Z"/></g>
<g><path style="opacity:0.314" fill="#8f1f0c" d="M 66.5,54.5 C 67.3764,54.3691 68.0431,54.7025 68.5,55.5C 70.0823,59.6827 69.4156,63.3494 66.5,66.5C 68.9747,62.4508 68.9747,58.4508 66.5,54.5 Z"/></g>
<g><path style="opacity:0.078" fill="#a72109" d="M 60.5,69.5 C 59.8166,71.1765 58.4832,71.8432 56.5,71.5C 56.5,80.1667 56.5,88.8333 56.5,97.5C 58.7354,97.2053 60.7354,97.5386 62.5,98.5C 60.3298,99.768 58.1632,99.768 56,98.5C 55.5002,88.8391 55.3335,79.1724 55.5,69.5C 57.1667,69.5 58.8333,69.5 60.5,69.5 Z"/></g>
<g><path style="opacity:0.075" fill="#1a4c41" d="M 105.5,79.5 C 105.539,82.089 104.539,84.089 102.5,85.5C 102.992,83.1815 103.992,81.1815 105.5,79.5 Z"/></g>
<g><path style="opacity:0.043" fill="#921e0b" d="M 22.5,107.5 C 28.9441,111.719 35.6108,115.386 42.5,118.5C 36.9901,116.829 31.6568,114.662 26.5,112C 24.3645,111.124 23.0312,109.624 22.5,107.5 Z"/></g>
</svg>
