<svg width="98" height="28" viewBox="0 0 98 28" fill="none" xmlns="http://www.w3.org/2000/svg">
<g clip-path="url(#clip0_1842_75)">
<path d="M17.7245 10.1824C17.3838 9.50095 16.9573 8.87511 16.445 8.30723C15.9536 7.72079 15.3834 7.20854 14.739 6.77277C13.3947 5.86415 11.9158 5.35189 10.3072 5.23831C8.69624 5.10619 7.16179 5.3797 5.70382 6.06349C5.00381 6.40422 4.35016 6.83072 3.74287 7.34297C3.15643 7.83437 2.6349 8.39531 2.18059 9.01883C1.74483 9.64466 1.37628 10.3261 1.07263 11.0655C0.787528 11.7864 0.609048 12.5328 0.532557 13.3093C0.514014 13.4599 0.495471 13.6129 0.474609 13.7636V26.2085C0.474609 26.6999 0.646135 27.1171 0.986868 27.4578C1.3276 27.7986 1.74483 27.9701 2.23622 27.9701C2.72762 27.9701 3.14484 27.7986 3.48558 27.4578C3.82631 27.1171 3.99784 26.6999 3.99784 26.2085V21.5193V21.5471V14.7719C3.99784 14.7719 3.98856 13.7798 4.0836 13.2768C4.29221 12.2732 4.72798 11.3831 5.3909 10.6066C5.90316 9.9993 6.52204 9.57744 7.21046 9.24366C7.29622 9.20194 7.38199 9.1579 7.38199 9.1579C8.57571 8.6271 9.81579 8.54134 11.1046 8.90293C11.7304 9.07445 12.3076 9.34797 12.8384 9.72811C13.3877 10.1059 13.8513 10.5718 14.2314 11.1212C14.9894 12.1828 15.3208 13.3765 15.2258 14.7023C15.1887 15.4024 15.0172 16.0769 14.7135 16.7189C14.4099 17.3448 14.0135 17.9034 13.5198 18.3948C13.2741 18.6219 13.0076 18.8213 12.7248 18.9905C12.4605 19.162 12.1754 19.3219 11.8718 19.4726C11.1509 19.7948 10.4045 19.9547 9.62804 19.9547C9.04857 19.9547 8.48531 19.8713 7.93829 19.7021V23.3088C8.87009 23.4826 9.81116 23.5127 10.7661 23.3922C11.9599 23.2415 13.0864 22.8707 14.148 22.2842C15.2096 21.6769 16.1089 20.8912 16.8483 19.9269C17.4348 19.1504 17.8891 18.3067 18.2113 17.3981C18.5335 16.4709 18.7143 15.5229 18.7513 14.5563C18.7699 13.7984 18.6841 13.0497 18.4964 12.3126C18.3249 11.5546 18.0699 10.8453 17.7291 10.1824H17.7245Z" fill="#FF2400"/>
<path d="M23.0324 6.37402C22.541 6.37402 22.1237 6.55482 21.783 6.9141C21.4423 7.25483 21.2708 7.67205 21.2708 8.16345V21.6328C21.2708 22.1242 21.4423 22.5507 21.783 22.9123C22.1237 23.2531 22.541 23.4246 23.0324 23.4246C23.5238 23.4246 23.941 23.2531 24.2817 22.9123C24.641 22.5531 24.8218 22.1266 24.8218 21.6328V8.16345C24.8218 7.67205 24.641 7.25483 24.2817 6.9141C23.941 6.55482 23.5238 6.37402 23.0324 6.37402Z" fill="#FF2400"/>
<path d="M23.0324 0.69043C22.541 0.69043 22.1237 0.871227 21.783 1.2305C21.4423 1.57124 21.2708 1.98846 21.2708 2.47986C21.2708 2.97126 21.4423 3.39775 21.783 3.75935C22.1237 4.10008 22.541 4.2716 23.0324 4.2716C23.5238 4.2716 23.941 4.10008 24.2817 3.75935C24.641 3.40007 24.8218 2.97357 24.8218 2.47986C24.8218 1.98614 24.641 1.57124 24.2817 1.2305C23.941 0.871227 23.5238 0.69043 23.0324 0.69043Z" fill="#FF2400"/>
<path d="M45.1499 5.1524C44.6585 5.1524 44.2413 5.3332 43.9006 5.69248C43.5598 6.03321 43.3883 6.45043 43.3883 6.94183V17.0016L33.3587 5.74811C33.0365 5.37029 32.6286 5.17095 32.1372 5.1524C31.6458 5.13386 31.2193 5.28452 30.8577 5.60671C30.5169 5.9289 30.3269 6.30672 30.2898 6.74249L30.262 6.77031V21.6884C30.262 22.1798 30.4335 22.597 30.7742 22.9377C31.1335 23.2785 31.56 23.45 32.0537 23.45C32.5474 23.45 32.9623 23.2785 33.3031 22.9377C33.6438 22.597 33.8153 22.1798 33.8153 21.6884V11.6008L43.8449 22.8821L43.8727 22.9099L43.9284 22.9679C43.9655 23.005 43.9956 23.0258 44.0141 23.0258V23.0536C44.0327 23.0536 44.042 23.0629 44.042 23.0815C44.042 23.0815 44.079 23.1 44.1555 23.1394C44.1741 23.1579 44.1833 23.1672 44.1833 23.1672C44.2204 23.2043 44.2598 23.2252 44.2969 23.2252C44.3155 23.2437 44.3247 23.253 44.3247 23.253C44.4012 23.2901 44.4383 23.3109 44.4383 23.3109C44.4569 23.3109 44.4661 23.3202 44.4661 23.3387H44.4939C44.5125 23.3387 44.5218 23.348 44.5218 23.3666H44.5797C44.5983 23.3666 44.6075 23.3758 44.6075 23.3944H44.6632C44.7002 23.3944 44.7304 23.4036 44.7489 23.4222H44.8347C44.8532 23.4222 44.8625 23.4315 44.8625 23.45H45.4026C45.4211 23.4315 45.4397 23.4222 45.4582 23.4222H45.5718C45.5903 23.4036 45.6089 23.3944 45.6297 23.3944C45.6668 23.3758 45.6853 23.3666 45.6853 23.3666H45.7433C45.7618 23.348 45.7897 23.3387 45.8291 23.3387C45.8291 23.3202 45.8383 23.3109 45.8569 23.3109C45.894 23.3109 45.9334 23.2924 45.9705 23.253H45.9983C46.0354 23.2344 46.0539 23.2252 46.0539 23.2252C46.0724 23.2066 46.1026 23.1881 46.1397 23.1672C46.1976 23.1093 46.244 23.0722 46.2811 23.0536L46.3367 22.9957C46.3367 22.9957 46.3552 22.9771 46.3946 22.9377L46.5082 22.8242V22.7964C46.5453 22.7778 46.5638 22.7593 46.5638 22.7384C46.5824 22.7199 46.6009 22.7013 46.6195 22.6805V22.6526C46.638 22.6341 46.6473 22.6156 46.6473 22.5947C46.6658 22.5762 46.6844 22.5576 46.7029 22.5367V22.5089C46.74 22.4718 46.7585 22.4324 46.7585 22.3954C46.7771 22.3768 46.7864 22.3583 46.7864 22.3374C46.8049 22.3189 46.8142 22.2795 46.8142 22.2238C46.8327 22.2053 46.842 22.1867 46.842 22.1659V22.1381C46.8605 22.1195 46.8698 22.101 46.8698 22.0801C46.8698 22.043 46.8791 22.0129 46.8976 21.9944V21.7093L46.9254 21.6814V6.94183C46.9254 6.45043 46.7446 6.03321 46.3854 5.69248C46.0446 5.3332 45.6274 5.1524 45.136 5.1524H45.1499Z" fill="#FF2400"/>
<path d="M56.2781 14.7275H49.4009V16.9435H56.2781V14.7275Z" fill="#FF2400"/>
<path d="M75.2364 5.15234C74.745 5.15234 74.3186 5.33314 73.957 5.69242C73.6162 6.03315 73.4447 6.45037 73.4447 6.94177V14.329H73.4725C73.4725 15.1055 73.3218 15.8356 73.0182 16.5171C72.7331 17.18 72.3367 17.7664 71.8245 18.2787C71.3122 18.7909 70.7165 19.1966 70.035 19.5002C69.3536 19.7853 68.6327 19.9267 67.8747 19.9267C67.1168 19.9267 66.3681 19.7853 65.6866 19.5002C65.0052 19.1966 64.4072 18.7909 63.8972 18.2787C63.4058 17.7664 63.0071 17.18 62.7035 16.5171C62.4184 15.8356 62.277 15.1055 62.277 14.329V6.94177C62.277 6.45037 62.1055 6.03315 61.7647 5.69242C61.424 5.33314 61.0068 5.15234 60.5154 5.15234C60.024 5.15234 59.5975 5.33314 59.2359 5.69242C58.8952 6.03315 58.7236 6.45037 58.7236 6.94177V14.329C58.7236 15.5783 58.9601 16.7628 59.4352 17.88C59.9266 18.9787 60.5803 19.9453 61.3962 20.7774C62.2283 21.591 63.1949 22.2446 64.2936 22.7383C65.4108 23.2112 66.6045 23.4476 67.8747 23.4476C69.145 23.4476 70.2993 23.2112 71.398 22.7383C72.5152 22.2469 73.4818 21.5933 74.2977 20.7774C75.1321 19.9429 75.7835 18.9787 76.2586 17.88C76.75 16.7628 76.9981 15.5783 76.9981 14.329V6.94177C76.9981 6.45037 76.8265 6.03315 76.4858 5.69242C76.1451 5.33314 75.7278 5.15234 75.2364 5.15234Z" fill="#FF2400"/>
<path d="M96.4499 10.1824C96.1091 9.50095 95.6826 8.87511 95.1704 8.30723C94.679 7.72079 94.1088 7.20854 93.4644 6.77277C92.12 5.86415 90.6412 5.35189 89.0325 5.23831C87.4216 5.10619 85.8871 5.3797 84.4292 6.06349C83.7292 6.40422 83.0755 6.83072 82.4682 7.34297C81.8818 7.83437 81.3602 8.39531 80.9059 9.01883C80.4702 9.64466 80.1016 10.3261 79.798 11.0655C79.5129 11.7864 79.3344 12.5328 79.2579 13.3093C79.2394 13.4599 79.2208 13.6129 79.2 13.7636V26.2085C79.2 26.6999 79.3715 27.1171 79.7122 27.4578C80.0529 27.7986 80.4702 27.9701 80.9616 27.9701C81.453 27.9701 81.8702 27.7986 82.2109 27.4578C82.5517 27.1171 82.7232 26.6999 82.7232 26.2085V21.5193V21.5471V14.7719C82.7232 14.7719 82.7139 13.7798 82.8089 13.2768C83.0176 12.2732 83.4533 11.3831 84.1162 10.6066C84.6285 9.9993 85.2474 9.57744 85.9358 9.24366C86.0216 9.20194 86.1073 9.1579 86.1073 9.1579C87.3011 8.6271 88.5411 8.54134 89.8299 8.90293C90.4557 9.07445 91.0329 9.34797 91.5637 9.72811C92.113 10.1059 92.5766 10.5718 92.9568 11.1212C93.7147 12.1828 94.0462 13.3765 93.9511 14.7023C93.9141 15.4024 93.7425 16.0769 93.4389 16.7189C93.1352 17.3448 92.7389 17.9034 92.2452 18.3948C91.9995 18.6219 91.7329 18.8213 91.4501 18.9905C91.1859 19.162 90.9008 19.3219 90.5971 19.4726C89.8763 19.7948 89.1299 19.9547 88.3534 19.9547C87.7739 19.9547 87.2107 19.8713 86.6636 19.7021V23.3088C87.5954 23.4826 88.5365 23.5127 89.4915 23.3922C90.6852 23.2415 91.8117 22.8707 92.8733 22.2842C93.9349 21.6769 94.8343 20.8912 95.5737 19.9269C96.1601 19.1504 96.6144 18.3067 96.9366 17.3981C97.2588 16.4709 97.4396 15.5229 97.4767 14.5563C97.4952 13.7984 97.4095 13.0497 97.2217 12.3126C97.0502 11.5546 96.7952 10.8453 96.4545 10.1824H96.4499Z" fill="#FF2400"/>
</g>
<defs>
<clipPath id="clip0_1842_75">
<rect width="97" height="27.2795" fill="white" transform="translate(0.476807 0.69043)"/>
</clipPath>
</defs>
</svg>
